<svg xmlns="http://www.w3.org/2000/svg" version="1.2" baseProfile="tiny" width="316" height="356" viewBox="21 6 158 178"><path d="M25,50 l150,0 0,100 -150,0 z" stroke-width="4" stroke="black" fill="rgb(128,224,255)" fill-opacity="1" ></path><path d="M25,150L175,50" stroke-width="3" stroke="black" fill="black" ></path><path d="m 25,90 c 18.8,0 0,20 18.8,20 18.8,0 0,-20 18.8,-20 18.8,0 0,20 18.8,20 18.8,0 0,-20 18.8,-20 18.8,0 0,20 18.8,20 18.8,0 0,-20 18.8,-20 18.8,0 0,20 18.8,20 18.8,0 0,-20 20,-20" stroke-width="3" stroke="black" fill="none" ></path><text x="100" y="71" text-anchor="middle" font-size="22" font-family="Arial" font-weight="bold" dominant-baseline="middle" stroke-width="3" stroke="none" fill="black" >ASLT</text><g transform="translate(0,0)" stroke-width="4" stroke="black" fill="none" ><path d="M70,40 l25,-25 m0,25 l-25,-25   M105,40 l25,-25 m0,25 l-25,-25" ></path></g><path d="M25,155 l150,0 0,25 -150,0 z" stroke-width="4" stroke="black" fill="rgb(0,255,0)" ></path><text x="100" y="103" text-anchor="middle" font-size="24" font-family="Arial" font-weight="bold" dominant-baseline="middle" stroke-width="4" stroke="none" fill="black" >14th MAD</text></svg>