<svg xmlns="http://www.w3.org/2000/svg" viewBox="0 0 1000 1000" preserveAspectRatio="xMidYMid meet" overflow="visible" role="img" aria-labelledby="title-2785" class="block undefined" style="width: 200px; height: 200px; vertical-align: -0.125em; undefined"> <g class="noselect notouch" style="pointer-events: none; " opacity="1"><g transform="scale(1 1)"><g transform="translate(500 500) scale(1 1)"><g opacity="1" transform="translate(-500 -500)"><g clip-path="url('#svgIc_clipShape_2786')"><g style="color: ;"><path id="icPath12786i0" d="M693,965l-53-88c-21,12-46,13-70,21v99c-16,4-99,5-139,2-1-17,0-34,0-50s0-33,0-49l-71-20-51,87L188,895c16-31,35-59,50-88l-42-38,2-4c-7,2-14,3-19,6l-71,44L37,694c28-21,59-33,85-53-4-24-18-44-16-69-17-2-34-1-51-1H6c-4-15-5-97-2-138h98l19-73c-25-19-56-31-83-52l70-118,83,48,46-45-49-84L308,37l49,83c25-2,47-17,73-16V4c15-4,84-5,138-2,3,17,1,34,1,50s0,33,0,49l74,20,49-84,120,71-47,81,47,47,80-47c26,38,47,78,71,118-26,22-57,34-84,52l20,73h95c4,15,5,99,2,139H898l-19,70c25,19,56,33,85,52L894,814l-86-50-44,47,49,83ZM505,814c76-1,147-27,207-82s98-134,103-221c2-33-3-65-12-96s-30-79-57-111a424,424,0,0,0-66-62c-28-22-62-34-96-46s-57-6-84-13c-40,4-81,9-119,25s-60,30-86,53c-39,34-69,75-89,124-14,36-22,73-22,112,0,84,28,158,86,219S409,813,505,814Zm14-515V625c10,10,119,80,132,84l-24-78L591,516,542,360l-13-44c-2-6-5-11-7-17Zm-38-3c-4,7-6,14-9,22L433,444,391,577c-12,39-24,77-37,116-2,6-4,10-1,16l128-82ZM371,532c6-16,11-31,16-46s9-32,14-49c-2-1-4-3-7-4-19-3-139,0-151,3Zm384-98H600c7,34,19,66,29,98l127-95Z" style="pointer-events: none;" stroke-miterlimit="1.77" fill="#fe6d6a" stroke="#fe6d6a" stroke-width="0" stroke-linecap="round" stroke-linejoin="miter" transform="translate(49.999999999999986 59.999999999999986) scale(0.9)"></path></g></g></g></g></g></g></svg>