<svg xmlns="http://www.w3.org/2000/svg" viewBox="0 0 1000 1000" preserveAspectRatio="xMidYMid meet" overflow="visible" role="img" aria-labelledby="title-1673" class="block ml-1 mr-0.5 mt-[3px]" style="width: 28px; height: 28px; vertical-align: -0.125em; undefined"> <g class="noselect notouch" style="pointer-events: none; " opacity="1"><g transform="scale(1 1)"><g transform="translate(500 500) scale(1 1)"><g opacity="1" transform="translate(-500 -500)"><g clip-path="url('#svgIc_clipShape_1674')"><g style="color: ;"><path id="icPath11674i0" d="m731 540 10 160-450-1.4L321 170h110l16 370h34v-90h110v90h50v-40zM504.8 392.9h26.3v-6c.1-19.7 9.7-33.4 27.1-41.9 5.6-2.7 11.4-4.5 17.7-1.6 1.6.7 3.4.9 5.2 1.3 14.1 2.5 26.5 0 35.5-12.3 1.9-2.7 4.3-5.2 7-7.2 4.3-3.3 9.1-6.2 14.8-3.4 10.8 5.2 22.2 6 33.7 5 16.2-1.4 29.7-8.3 40.2-21 7.2-8.7 10-18.9 11.1-29.7 1-9.6-1-18.8-6-27.2-7.6-12.9-19.6-18.6-33.9-18.8-9.2-.1-17.3-1.8-25.7-5.8-20.1-9.8-41.2-11.5-62.3-3.1-12.2 4.9-19.7 14.1-20.6 27.9l.2 9.6c-1.5 0 0 0-10.6-2.4-12.1-2.3-24-.2-35.3 4.6-13.6 5.8-22.2 16.1-25.3 30.6-3.2 15.2-1.6 30.6-1.2 45.9zM500 881.7 420.5 744l-56.9-.2L500 980l135.9-235.3-56.7-.2zm242.2-672.6c4.9 4.9 9.2 10.6 13 16.9 6 10 9.8 21 11.5 32.3h93.2l-90.7 157 5.1 89.5L945 209.1zm-489 343.5 5.1-89.5-118.2-204.8h129.8l2.8-49.2H54.9zm342-458.9-61.4-36.9L595.2 20l61.4 36.9zm-129-36.8L404.8 20l-61.4 36.9 61.4 36.9z" style="pointer-events: none;" stroke-miterlimit="1.77" fill="currentColor" stroke="currentColor" stroke-width="14.399999999999997" stroke-linecap="round" stroke-linejoin="miter" transform="translate(0 0) scale(1)"></path></g></g></g></g></g></g><title id="title-1673">Class 2 Megafactory: 1,250,000 HP</title></svg>