<svg xmlns="http://www.w3.org/2000/svg" viewBox="0 0 1000 1000" overflow="visible"><g class="svelte-1cr2wym" style=""><g transform="translate(500 500) scale(1 1)" class="svelte-1cr2wym"><g transform="translate(-500 -500)" class="svelte-1cr2wym"><clipPath id="svgIc_clipShape_2823"><path d="M940,500c0,243-197,440-440,440S60,743,60,500,257,60,500,60,940,257,940,500Z" transform="scale(1 1)" class="svelte-1cr2wym"></path></clipPath><g style="opacity: 0.4;"><path id="icDrop2823" d="M940,500c0,243-197,440-440,440S60,743,60,500,257,60,500,60,940,257,940,500Z" fill="#fe6d6a" stroke="#fe6d6a" stroke-width="72" paint-order="stroke"></path></g><g style="opacity: 1;"><path id="icBack2823" d="M940,500c0,243-197,440-440,440S60,743,60,500,257,60,500,60,940,257,940,500Z" fill="#282828"></path></g><g clip-path="url('#svgIc_clipShape_2823')"><g style="opacity: 1; color: #fe6d6a; "> <g class="noselect notouch" style="pointer-events: none; " opacity="1"><g transform="scale(1 1)"><g transform="translate(500 500) scale(1 1)"><g opacity="1" transform="translate(-500 -500)"><g clip-path="url('#svgIc_clipShape_2824')"><g style="color: ;"><path id="icPath12824i0" d="M538.8 571.2h-77.6s0-27 38.8-27c35.8 0 38.8 27 38.8 27m-8.6 16.1h-60.5c-11.9-.3-19.4 11-21.6 24.8h103.7c-2.2-13.8-9.7-25.1-21.6-24.8m19.1 41h-98.6c-11-1-22.5-4.1-35-5.3-16.7 19.1-36.7 42-58.4 66.8 16.4 14 30 25.5 44.1 37.5 14.3-11.6 30.8-24.8 46.3-37.3h104.6c15.5 12.5 32 25.8 46.3 37.3 14.1-12 27.7-23.6 44.1-37.5-21.7-24.9-41.7-47.7-58.4-66.8-12.6 1.1-24 4.2-35 5.3m215-55.7c-18.4 24-27.8 54.6-24.8 87l.2 44.1c-30.4 34-62 71.7-96.3 106.8-14.2 14.6-33.8 22.9-56.5 21.6-28.2-1.5-56.7-.4-86.9-.4s-58.6-1.2-86.9.4c-22.7 1.2-42.2-7-56.5-21.6-34.3-35.1-66-72.8-96.3-106.8l.2-44.1c3-32.4-6.4-63-24.8-87-28.3-37-34.5-76.4-28.1-121.6 13.6-16.8 28.9-7.5 41.7-7.1 3.7-36.2 5.8-72.1 11.4-107.4 5.2-32.4 8.2-67.3 30.1-93.3 24.6-29.3 50.5-59.4 93.2-63.9 9.9-1 19.5-5.5 31.6-9 4.4-13.2 9.1-27.4 14.1-42.4h140.4c5 15 9.7 29.2 14.1 42.4 12.1 3.6 21.7 8 31.6 9 42.8 4.5 68.6 34.5 93.2 63.9 21.9 26 24.9 60.9 30.1 93.3 5.6 35.3 7.7 71.2 11.4 107.4 12.8-.4 28.1-9.7 41.7 7.1 6.6 45.2.4 84.6-27.9 121.6M459.1 195h81.7c13.9-18.5 23.6-34.3 8.1-50H451c-15.5 15.8-5.7 31.6 8.1 50m263.5 442.6c-28.1-9.6-33.3 24.3-59.4 30.1-24.4-14.4-43.5-41-66.4-62.8-23.6-22.4-35.7-36.2-58.1-59.1 0 0-10-14.1-38.6-14.1s-38.6 14.1-38.6 14.1c-22.4 22.8-34.6 36.7-58.1 59.1-23 21.8-42.1 48.4-66.4 62.8-26.1-5.8-31.3-39.8-59.4-30.1-4.2 23.1-4.8 44 10.2 60.8 32.7 36.8 66.3 72.7 99.5 109 10.4-8.8 19.2-16.3 29.6-25.1 10.4 1.3 20.8 2.6 31.3 3.9H552c10.5-1.3 21-2.6 31.3-3.9 10.4 8.8 19.2 16.3 29.6 25.1 33.2-36.2 66.8-72.2 99.5-109 15-16.8 14.4-37.6 10.2-60.8m54.1-156.4c.1-5.8-3.4-11.6-5.5-18.3-12.9 3.6-23.5 6.5-37 10.2-.8-15.3-.8-28.1-2.3-40.7-5.2-43.4-8.2-87.4-17.2-130-7.8-37.2-30.9-68.2-60.6-91.8-25.3-20.2-56.2-15.2-85.4-8.9-13.3 2.9-23.5 6.8-36.7 11.4v8.7c9.6.3 17.4 0 27.6 0 31.5-.1 60.8 8.3 87.6 23.9 15.4 8.9 26.6 21 32.3 40.9 9.3 32.5 7.6 63.2-2.2 99.6 7.9 15.2 17.6 34.1 29.7 57.4V470h-43.8c-3.1-13.2-12.1-24.1-24-29.9-5.6-52.6-11.3-106.2-17.7-166.1-3.9 8.2-6 10.5-6.1 12.9-2.5 50.1-4.7 100.2-6.9 149.9-.3.3-.6.5-.9.7L570 470.4c-12.4 2.1-29.9 4.8-47.3 7.6h-45.1c-17.4-2.8-34.9-5.4-47.3-7.6l-37.6-32.9c-.3-.2-.6-.5-.9-.7-2.3-49.7-4.5-99.8-6.9-149.9-.1-2.4-2.2-4.7-6.1-12.9-6.4 59.9-12.1 113.5-17.7 166.1-12 5.7-20.9 16.7-24 29.9h-43.8v-26.4c12.1-23.3 21.9-42.2 29.7-57.4-9.8-36.4-11.5-67-2.2-99.6 5.7-19.8 16.8-31.9 32.3-40.9 26.8-15.5 56.1-23.9 87.6-23.9 10.1 0 18 .3 27.6 0V213c-13.3-4.6-23.4-8.5-36.7-11.4-29.2-6.3-60.1-11.3-85.4 8.9-29.7 23.6-52.7 54.6-60.6 91.8-9 42.7-12 86.6-17.2 130-1.5 12.6-1.5 25.4-2.3 40.7-13.5-3.7-24-6.6-37-10.2-2.1 6.7-5.6 12.5-5.5 18.3.5 47.5 27.2 84.7 49.4 123.5 15.4 7.3 30.6 14.5 45.9 21.8 14.3-45.6-3.4-79.1-36-106.6 5.7-9.8 10.1-17.4 14-24.3h42c4.8 12.8 15.4 22.7 28.6 26.7 6.7 27.6-7.5 57.4 18.2 83.8v-82.2c16.2-1.9 29.7-12.6 35.7-27.2 4.5-2.2 9.7-4 16.3-5.1h125.4c6.5 1.1 11.8 2.9 16.3 5.1 6 14.6 19.5 25.3 35.7 27.2V606c25.7-26.4 11.5-56.2 18.2-83.8 13.2-4 23.7-13.9 28.6-26.7h42c4 6.9 8.4 14.4 14 24.3-32.6 27.5-50.4 61-36 106.6 15.4-7.3 30.5-14.5 45.9-21.8 21.7-38.7 48.4-75.8 48.9-123.4M550.3 708.8H449.7s-10.7 0-10.7 50.3h122c0-50.3-10.7-50.3-10.7-50.3" style="pointer-events: none;" stroke-miterlimit="1.77" fill="currentColor" stroke="currentColor" stroke-width="0" stroke-linecap="round" stroke-linejoin="miter" transform="translate(25.00000000000002 35.00000000000002) scale(0.95)"></path></g></g><title>CYBORGS</title></g></g></g></g></g></g></g></g><title>CYBORGS</title></g><title>CYBORGS</title></svg>