<svg xmlns="http://www.w3.org/2000/svg" width="293.333" height="305.333" preserveAspectRatio="xMidYMid meet" version="1.0" viewBox="0 0 220 229"><path fill="#000" stroke="none" d="M661 2144 c-239 -79 -438 -147 -442 -151 -4 -4 6 -206 22 -447 l30 -439 -136 -137 c-74 -75 -135 -141 -135 -146 0 -12 333 -415 354 -428 10 -7 48 3 125 33 60 24 116 41 124 38 8 -3 33 -74 60 -168 26 -90 52 -168 59 -175 7 -6 95 -35 196 -64 l182 -53 183 53 c100 29 188 58 195 64 7 7 33 85 59 175 27 94 52 165 60 168 8 3 64 -14 124 -38 77 -30 115 -40 125 -33 21 13 354 416 354 428 0 5 -61 71 -136 146 l-135 137 30 439 c16 241 27 442 25 446 -3 5 -775 262 -876 292 -7 2 -208 -61 -447 -140z m19 -964 c46 -13 96 -50 126 -93 78 -115 38 -269 -87 -331 -154 -76 -329 31 -329 201 0 74 26 130 78 174 65 54 135 71 212 49z m971 -2 c22 -6 58 -27 80 -47 160 -136 61 -401 -149 -401 -64 0 -145 41 -182 92 -130 180 39 420 251 356z m-476 -555 c36 -54 65 -105 65 -115 0 -9 -14 -27 -32 -39 l-31 -23 -39 44 -39 44 -39 -45 -38 -44 -28 21 c-16 12 -31 29 -32 38 -4 19 122 216 138 216 5 0 39 -44 75 -97z" transform="matrix(.1 0 0 -.1 0 229)"/></svg>