<svg xmlns="http://www.w3.org/2000/svg" viewBox="0 0 1000 1000" overflow="visible">
  <g transform="translate(500 500) scale(1 1)">
    <g transform="translate(-500 -500)">
      <defs>
        <clipPath id="svgIc_clipShape_984">
          <path d="M940,500c0,243-197,440-440,440S60,743,60,500,257,60,500,60,940,257,940,500Z" />
        </clipPath>
      </defs>

      <g style="opacity: 0.4;">
        <path id="icDrop984" d="M940,500c0,243-197,440-440,440S60,743,60,500,257,60,500,60,940,257,940,500Z" fill="#fe6d6a" stroke="#fe6d6a" stroke-width="72" paint-order="stroke" />
      </g>

      <g style="opacity: 1;">
        <path id="icBack984" d="M940,500c0,243-197,440-440,440S60,743,60,500,257,60,500,60,940,257,940,500Z" fill="#282828" />
      </g>

      <g clip-path="url('#svgIc_clipShape_984')">
        <g style="opacity: 1; color: #fe6d6a;">
          <g transform="translate(500, 500) scale(6.899)">
            <path id="icPath1985i0" d="m773 1257-22 22-14-14 22-22h14zm-35 16 5 5v9l-2 2-14-14 2-2zm-2 19-10 10v-6l-8 2 2-8h-6l10-10 2 2-3 11 11-3zm19-53-22 22-14-14 22-22h14zm-35 16 5 5v9l-2 2-14-14 2-2zm-2 19-10 10v-6l-8 2 2-8h-6l10-10 2 2-3 11 11-3z" 
                  fill="#fe6d6a" 
                  transform="translate(-740, -1260)" />
          </g>
        </g>
      </g>
    </g>
  </g>
</svg>