<svg xmlns="http://www.w3.org/2000/svg" version="1.2" baseProfile="tiny" width="346" height="446" viewBox="13.5 -47 173 223"><path d="M 100,28 L172,100 100,172 28,100 100,28 Z" stroke-width="4" stroke="black" fill="rgb(255,128,128)" fill-opacity="1" ></path><path d="M60,70L140,130M60,130L140,70" stroke-width="3" stroke="black" fill="black" ></path><g transform="translate(0,0)" stroke-width="4" stroke="black" fill="none" ><path d="M17.5,18 l25,-25 m0,25 l-25,-25    M52.5,18 l25,-25 m0,25 l-25,-25    M87.5,18 l25,-25 m0,25 l-25,-25    M122.5,18 l25,-25 m0,25 l-25,-25       M157.5,18 l25,-25 m0,25 l-25,-25" ></path></g><path d="M17.5,-18 l165,0 0,-25 -165,0 z" stroke-width="4" stroke="black" fill="rgb(255, 0, 0)" ></path><text x="100" y="-23" text-anchor="middle" font-size="22" font-family="Arial" font-weight="bold" stroke-width="4" stroke="none" fill="black" >B-ENG-D</text></svg>