<svg xmlns="http://www.w3.org/2000/svg" viewBox="0 0 1000 1000" overflow="visible"><g class="svelte-1cr2wym" style=""><g transform="translate(500 500) scale(1 1)" class="svelte-1cr2wym"><g transform="translate(-500 -500)" class="svelte-1cr2wym"><clipPath id="svgIc_clipShape_984"><path d="M940,500c0,243-197,440-440,440S60,743,60,500,257,60,500,60,940,257,940,500Z" transform="scale(1 1)" class="svelte-1cr2wym"></path></clipPath><g style="opacity: 0.4;"><path id="icDrop984" d="M940,500c0,243-197,440-440,440S60,743,60,500,257,60,500,60,940,257,940,500Z" fill="#fe6d6a" stroke="#fe6d6a" stroke-width="72" paint-order="stroke"></path></g><g style="opacity: 1;"><path id="icBack984" d="M940,500c0,243-197,440-440,440S60,743,60,500,257,60,500,60,940,257,940,500Z" fill="#282828"></path></g><g clip-path="url('#svgIc_clipShape_984')"><g style="opacity: 1; color: #fe6d6a; "> <g class="noselect notouch" style="pointer-events: none; " opacity="1"><g transform="scale(1 1)"><g transform="translate(500 500) scale(1 1)"><g opacity="1" transform="translate(-500 -500)"><g clip-path="url('#svgIc_clipShape_985')"><g style="color: ;"><path id="icPath1985i0" d="M434,714,663,482V283c26,19,43,39,61,57l58,56V537l-40,40-33-19-29,34,18,28-36,35-33-18-28,30,13,31-33,35-30-17-29,29,14,30L434,871ZM372,865V685l58-49V348L252,528V748L364,868ZM611,227c-38-37-74-77-118-115V565L611,445Z" style="pointer-events: none;" stroke-miterlimit="1.77" fill="currentColor" stroke="currentColor" stroke-width="0" stroke-linecap="round" stroke-linejoin="miter" transform="translate(49.99999999999998 31.99999999999998) scale(0.92)"></path></g></g><title>THE INCINERATION CORPS</title></g></g></g></g></g></g></g></g><title>THE INCINERATION CORPS</title></g><title>THE INCINERATION CORPS</title></svg>