<svg xmlns="http://www.w3.org/2000/svg" viewBox="0 0 1440 360" class="pb-1 h-[3.2rem] sm:h-[3.5rem] pt-[7px] sm:pt-2" style="pointer-events: none; color: #dac82c; undefined" overflow="visible">
<path d="M823,227l6-109L720,82,611,118l6,109-33,34,45,54,26-11a4,4,0,0,1,5,3l12,40,48,14,48-14,12-40a4,4,0,0,1,5-3l26,11,45-54ZM660,272a29,29,0,1,1,29-29A29,29,0,0,1,660,272Zm70,34-10-11-10,11h-1l-7-6a2,2,0,0,1,0-3l16-24a4,4,0,0,1,7,0l16,24a2,2,0,0,1,0,3l-7,6Zm49-34a29,29,0,1,1,29-29A29,29,0,0,1,780,272Z" stroke="#FFE710a3" stroke-width="0" fill="currentcolor" fill-opacity="1" style="transition: all 0.1s ease-in-out; filter: drop-shadow(0 0 2px #000) drop-shadow(0 0 3px #000000a3); opacity: 1;"></path>
</svg>
